<svg width="256" height="256" fill="none" xmlns="http://www.w3.org/2000/svg"><rect width="256" height="256" rx="128" fill="#272219"/><path d="M216.467 118.518v7.88c0 .631-.316.946-.946 1.261-1.009.505-2.009-.686-2.865-1.42l-10.568-9.058c-.919-.787-2.239-1.679-1.698-2.761.566-1.133 2.189-.456 3.407-.107l9.658 2.759c1.162.332 3.012.238 3.012 1.446ZM86.907 48.852c-12.293 0-24.587 1.892-35.62 5.675-5.99 1.89-11.663 4.413-17.022 7.25l-.094.044c-1.037.467-2.306-.919-1.797-1.936 3.152-5.674 6.935-10.717 11.663-15.13 8.826-7.881 20.49-13.555 33.414-16.077 12.925-2.837 27.425-2.522 42.241.315 16.492 3.36 33.281 10.566 48.358 21.906.968.728 2.304 1.599 1.763 2.682-.566 1.131-2.199.481-3.442.25-5.114-.946-10.45-1.196-15.787-1.196-4.413 0-8.826.315-12.924.946-3.338.607-6.967 1.213-10.327 2.101a3.072 3.072 0 0 1-1.844-.08c-5.821-2.11-11.649-3.633-17.776-4.858-6.62-1.261-13.87-1.892-20.805-1.892Zm52.644 79.123c.647.647-.215 1.671-.623 2.49-5.177 10.384-10.384 25.361-1.899 35.967.315.316.315.631.315.946 0 .773-.965 1.148-1.587 1.607-8.921 6.596-10.434 20.294-11.652 33.699-1.18 12.385-12.949 19.76-24.68 15.616-10.697-3.778-20.852-9.137-30.17-15.932-9.457-7.25-17.968-15.761-24.588-25.218-2.471-3.09-2.125-7.393.055-10.695l37.447-56.739c.426-.645.813-1.601 1.587-1.601.315 0 .63 0 .945.315 11.349 10.403 28.056 18.914 53.589 18.914.631 0 .946.315 1.261.631Zm70.296 76.915c-5.127 4.825-11.696 11.381-18.052 19.945-.578.778-1.153 1.806-2.123 1.806-.832 0-1.119-1.023-1.401-1.806-1.304-3.622-2.098-8.188-2.382-13.01-.307-6.158.588-13.219 2.686-19.713.098-.304.269-.579.495-.805.386-.385.923-.668 1.447-.515a.971.971 0 0 1 .416.228c4.098 4.098 10.403 8.827 18.283 11.664.804.401 1.314 1.517.681 2.155a2.381 2.381 0 0 1-.05.051Zm22.066-20.785c0 .136-.011.365-.035.499-1.224 6.839-6.072 10.011-8.536 11.199a2.745 2.745 0 0 1-1.201.261c-17.52-2.044-28.008-15.719-29.458-17.723-.122-.168-.214-.343-.337-.511-.311-.425-.782-.718-1.268-1.171a.512.512 0 0 0-.346-.139.55.55 0 0 1-.218-.049c-.596-.267-1.192-.267-1.787-.267-1.261 0-10.718-.315-36.252-10.402-21.12-8.196-2.206-30.577.631-40.98 7.565-26.164-13.555-45.708-40.665-43.501-2.521.315-4.728 2.522-4.413 5.044.038.306.105.602.196.887 1.299 4.066 6.988 3.268 11.243 3.606 9.795.776 27.299 5.052 26.389 25.768 0 .631-.631 1.261-1.261 1.261-48.464 3.107-64.474-28.077-69.453-42.257-.146-.415-.26-.701-.172-1.132.086-.422.408-.924.754-1.181.042-.031.084-.06.126-.084.207-.123.46-.126.698-.16l50.804-7.481c.147-.022.277-.029.425-.036.528-.024 1.009-.385 1.52-.523 3.252-.872 6.753-1.704 10.254-1.995 3.783-.63 7.565-.63 11.663-.63 7.251 0 14.501.945 21.121 2.836 6.548 1.56 12.788 4.352 18.414 7.464.121.067.36.109.438.222.106.154.126.274.244.42 2.776 3.405 5.539 7.113 7.698 11.123 3.449 5.644 6.274 11.287 8.475 17.551.024.067.03.069.039.14.033.238.381.413.485.629.703 1.467 1.019 2.507 1.283 2.952.038.064.121.174.121.249 0 .056-.054.215-.108.2l-30.785-8.481c-2.522-.63-5.043.63-5.989 3.152-.631 1.891.315 3.783 1.576 5.044l42.455 36.211c.268.229.681.343.721.694.019.169.039.373.096.533l14.271 40.021c.095.266.144.455.144.737Z" fill="#fff"/><path d="M216.467 118.518v7.88c0 .631-.316.946-.946 1.261-1.009.505-2.009-.686-2.865-1.42l-10.568-9.058c-.919-.787-2.239-1.679-1.698-2.761.566-1.133 2.189-.456 3.407-.107l9.658 2.759c1.162.332 3.012.238 3.012 1.446ZM86.907 48.852c-12.293 0-24.587 1.892-35.62 5.675-5.99 1.89-11.663 4.413-17.022 7.25l-.094.044c-1.037.467-2.306-.919-1.797-1.936 3.152-5.674 6.935-10.717 11.663-15.13 8.826-7.881 20.49-13.555 33.414-16.077 12.925-2.837 27.425-2.522 42.241.315 16.492 3.36 33.281 10.566 48.358 21.906.968.728 2.304 1.599 1.763 2.682-.566 1.131-2.199.481-3.442.25-5.114-.946-10.45-1.196-15.787-1.196-4.413 0-8.826.315-12.924.946-3.338.607-6.967 1.213-10.327 2.101a3.072 3.072 0 0 1-1.844-.08c-5.821-2.11-11.649-3.633-17.776-4.858-6.62-1.261-13.87-1.892-20.805-1.892Zm52.644 79.123c.647.647-.215 1.671-.623 2.49-5.177 10.384-10.384 25.361-1.899 35.967.315.316.315.631.315.946 0 .773-.965 1.148-1.587 1.607-8.921 6.596-10.434 20.294-11.652 33.699-1.18 12.385-12.949 19.76-24.68 15.616-10.697-3.778-20.852-9.137-30.17-15.932-9.457-7.25-17.968-15.761-24.588-25.218-2.471-3.09-2.125-7.393.055-10.695l37.447-56.739c.426-.645.813-1.601 1.587-1.601.315 0 .63 0 .945.315 11.349 10.403 28.056 18.914 53.589 18.914.631 0 .946.315 1.261.631Zm70.296 76.915c-5.127 4.825-11.696 11.381-18.052 19.945-.578.778-1.153 1.806-2.123 1.806-.832 0-1.119-1.023-1.401-1.806-1.304-3.622-2.098-8.188-2.382-13.01-.307-6.158.588-13.219 2.686-19.713.098-.304.269-.579.495-.805.386-.385.923-.668 1.447-.515a.971.971 0 0 1 .416.228c4.098 4.098 10.403 8.827 18.283 11.664.804.401 1.314 1.517.681 2.155a2.381 2.381 0 0 1-.05.051Zm22.066-20.785c0 .136-.011.365-.035.499-1.224 6.839-6.072 10.011-8.536 11.199a2.745 2.745 0 0 1-1.201.261c-17.52-2.044-28.008-15.719-29.458-17.723-.122-.168-.214-.343-.337-.511-.311-.425-.782-.718-1.268-1.171a.512.512 0 0 0-.346-.139.55.55 0 0 1-.218-.049c-.596-.267-1.192-.267-1.787-.267-1.261 0-10.718-.315-36.252-10.402-21.12-8.196-2.206-30.577.631-40.98 7.565-26.164-13.555-45.708-40.665-43.501-2.521.315-4.728 2.522-4.413 5.044.038.306.105.602.196.887 1.299 4.066 6.988 3.268 11.243 3.606 9.795.776 27.299 5.052 26.389 25.768 0 .631-.631 1.261-1.261 1.261-48.464 3.107-64.474-28.077-69.453-42.257-.146-.415-.26-.701-.172-1.132.086-.422.408-.924.754-1.181.042-.031.084-.06.126-.084.207-.123.46-.126.698-.16l50.804-7.481c.147-.022.277-.029.425-.036.528-.024 1.009-.385 1.52-.523 3.252-.872 6.753-1.704 10.254-1.995 3.783-.63 7.565-.63 11.663-.63 7.251 0 14.501.945 21.121 2.836 6.548 1.56 12.788 4.352 18.414 7.464.121.067.36.109.438.222.106.154.126.274.244.42 2.776 3.405 5.539 7.113 7.698 11.123 3.449 5.644 6.274 11.287 8.475 17.551.024.067.03.069.039.14.033.238.381.413.485.629.703 1.467 1.019 2.507 1.283 2.952.038.064.121.174.121.249 0 .056-.054.215-.108.2l-30.785-8.481c-2.522-.63-5.043.63-5.989 3.152-.631 1.891.315 3.783 1.576 5.044l42.455 36.211c.268.229.681.343.721.694.019.169.039.373.096.533l14.271 40.021c.095.266.144.455.144.737Z" fill="url(#a)"/><defs><linearGradient id="a" x1="128.045" y1="17.481" x2="128.045" y2="240.253" gradientUnits="userSpaceOnUse"><stop stop-color="#fff"/><stop offset="1" stop-color="#fff" stop-opacity="0"/></linearGradient></defs></svg>